<svg version="1.1" xmlns="http://www.w3.org/2000/svg" xmlns:xlink="http://www.w3.org/1999/xlink" width="413" height="490"><defs/><g><g transform="translate(-278,-518) scale(1,1)"><rect fill="#ffffff" stroke="none" x="453" y="974" width="44.40087890625" height="24"/></g><g transform="translate(-278,-518) scale(1,1)"><path fill="none" stroke="#000000" d="M 453 974 L 497.40087890625 974 L 497.40087890625 998 L 453 998 L 453 974 Z Z" stroke-miterlimit="10"/></g><g transform="translate(-278,-518) scale(1,1)"><g><path fill="none" stroke="none"/><text fill="#000000" stroke="none" font-family="Arial" font-size="13px" font-style="normal" font-weight="bold" text-decoration="none" x="457.5" y="991.471923828125">Event</text></g></g><g transform="translate(-278,-518) scale(1,1)"><rect fill="#ffffff" stroke="none" x="456" y="892" width="39.10693359375" height="24"/></g><g transform="translate(-278,-518) scale(1,1)"><path fill="none" stroke="#000000" d="M 456 892 L 495.10693359375 892 L 495.10693359375 916 L 456 916 L 456 892 Z Z" stroke-miterlimit="10"/></g><g transform="translate(-278,-518) scale(1,1)"><g><path fill="none" stroke="none"/><text fill="#000000" stroke="none" font-family="Arial" font-size="13px" font-style="normal" font-weight="bold" text-decoration="none" x="460.5" y="909.7099609375">Time</text></g></g><g transform="translate(-278,-518) scale(1,1)"><rect fill="#ffffff" stroke="none" x="431" y="810" width="88.96142578125" height="24"/></g><g transform="translate(-278,-518) scale(1,1)"><path fill="none" stroke="#000000" d="M 431 810 L 519.96142578125 810 L 519.96142578125 834 L 431 834 L 431 810 Z Z" stroke-miterlimit="10"/></g><g transform="translate(-278,-518) scale(1,1)"><g><path fill="none" stroke="none"/><text fill="#000000" stroke="none" font-family="Arial" font-size="13px" font-style="normal" font-weight="bold" text-decoration="none" x="435.5" y="827.7099609375">Time Interval</text></g></g><g transform="translate(-278,-518) scale(1,1)"><rect fill="#ffffff" stroke="none" x="433" y="728" width="85.33056640625" height="24"/></g><g transform="translate(-278,-518) scale(1,1)"><path fill="none" stroke="#000000" d="M 433 728 L 518.33056640625 728 L 518.33056640625 752 L 433 752 L 433 728 Z Z" stroke-miterlimit="10"/></g><g transform="translate(-278,-518) scale(1,1)"><g><path fill="none" stroke="none"/><text fill="#000000" stroke="none" font-family="Arial" font-size="13px" font-style="normal" font-weight="bold" text-decoration="none" x="437.5" y="745.7099609375">Time Instant</text></g></g><g transform="translate(-278,-518) scale(1,1)"><rect fill="#ffffff" stroke="none" x="331.5" y="592" width="91.33544921875" height="24"/></g><g transform="translate(-278,-518) scale(1,1)"><path fill="none" stroke="#000000" d="M 331.5 592 L 422.83544921875 592 L 422.83544921875 616 L 331.5 616 L 331.5 592 Z Z" stroke-miterlimit="10"/></g><g transform="translate(-278,-518) scale(1,1)"><g><path fill="none" stroke="none"/><text fill="#000000" stroke="none" font-family="Arial" font-size="13px" font-style="normal" font-weight="bold" text-decoration="none" x="336" y="609.471923828125">Fuzzy Instant</text></g></g><g transform="translate(-278,-518) scale(1,1)"><rect fill="#ffffff" stroke="none" x="317.7509765625" y="528" width="105.08447265625" height="24"/></g><g transform="translate(-278,-518) scale(1,1)"><path fill="none" stroke="#000000" d="M 317.7509765625 528 L 422.83544921875 528 L 422.83544921875 552 L 317.7509765625 552 L 317.7509765625 528 Z Z" stroke-miterlimit="10"/></g><g transform="translate(-278,-518) scale(1,1)"><g><path fill="none" stroke="none"/><text fill="#000000" stroke="none" font-family="Arial" font-size="13px" font-style="normal" font-weight="bold" text-decoration="none" x="322.2509765625" y="545.7099609375">Relative Instant</text></g></g><g transform="translate(-278,-518) scale(1,1)"><rect fill="#ffffff" stroke="none" x="312" y="656" width="110.83544921875" height="24"/></g><g transform="translate(-278,-518) scale(1,1)"><path fill="none" stroke="#000000" d="M 312 656 L 422.83544921875 656 L 422.83544921875 680 L 312 680 L 312 656 Z Z" stroke-miterlimit="10"/></g><g transform="translate(-278,-518) scale(1,1)"><g><path fill="none" stroke="none"/><text fill="#000000" stroke="none" font-family="Arial" font-size="13px" font-style="normal" font-weight="bold" text-decoration="none" x="316.5" y="673.7099609375">Absolute Instant</text></g></g><g transform="translate(-278,-518) scale(1,1)"><rect fill="#ffffff" stroke="none" x="544" y="592" width="94.96630859375" height="24"/></g><g transform="translate(-278,-518) scale(1,1)"><path fill="none" stroke="#000000" d="M 544 592 L 638.96630859375 592 L 638.96630859375 616 L 544 616 L 544 592 Z Z" stroke-miterlimit="10"/></g><g transform="translate(-278,-518) scale(1,1)"><g><path fill="none" stroke="none"/><text fill="#000000" stroke="none" font-family="Arial" font-size="13px" font-style="normal" font-weight="bold" text-decoration="none" x="548.5" y="609.7099609375">Fuzzy Interval</text></g></g><g transform="translate(-278,-518) scale(1,1)"><rect fill="#ffffff" stroke="none" x="544" y="528" width="108.71533203125" height="24"/></g><g transform="translate(-278,-518) scale(1,1)"><path fill="none" stroke="#000000" d="M 544 528 L 652.71533203125 528 L 652.71533203125 552 L 544 552 L 544 528 Z Z" stroke-miterlimit="10"/></g><g transform="translate(-278,-518) scale(1,1)"><g><path fill="none" stroke="none"/><text fill="#000000" stroke="none" font-family="Arial" font-size="13px" font-style="normal" font-weight="bold" text-decoration="none" x="548.5" y="545.7099609375">Relative Interval</text></g></g><g transform="translate(-278,-518) scale(1,1)"><rect fill="#ffffff" stroke="none" x="544" y="656" width="114.46630859375" height="24"/></g><g transform="translate(-278,-518) scale(1,1)"><path fill="none" stroke="#000000" d="M 544 656 L 658.46630859375 656 L 658.46630859375 680 L 544 680 L 544 656 Z Z" stroke-miterlimit="10"/></g><g transform="translate(-278,-518) scale(1,1)"><g><path fill="none" stroke="none"/><text fill="#000000" stroke="none" font-family="Arial" font-size="13px" font-style="normal" font-weight="bold" text-decoration="none" x="548.5" y="673.7099609375">Absolute Interval</text></g></g><g transform="translate(-278,-518) scale(1,1)"><path fill="none" stroke="#000000" d="M 475 834 L 475 892" stroke-miterlimit="10"/></g><g transform="translate(-278,-518) scale(1,1)"><path fill="#FFFFFF" stroke="none" d="M 466.580964487968 871.6746502847517 L 475 892 L 483.419035512032 871.6746502847517"/></g><g transform="translate(-278,-518) scale(1,1)"><path fill="none" stroke="#000000" d="M 466.580964487968 871.6746502847517 L 475 892 L 483.419035512032 871.6746502847517 L 466.580964487968 871.6746502847517" stroke-miterlimit="10"/></g><g transform="translate(-278,-518) scale(1,1)"><path fill="none" stroke="#000000" d="M 653 540 L 680 540 L 680 820 L 520 820" stroke-miterlimit="10"/></g><g transform="translate(-278,-518) scale(1,1)"><path fill="#FFFFFF" stroke="none" d="M 540.3253497152483 811.580964487968 L 520 820 L 540.3253497152483 828.419035512032"/></g><g transform="translate(-278,-518) scale(1,1)"><path fill="none" stroke="#000000" d="M 540.3253497152483 811.580964487968 L 520 820 L 540.3253497152483 828.419035512032 L 540.3253497152483 811.580964487968" stroke-miterlimit="10"/></g><g transform="translate(-278,-518) scale(1,1)"><path fill="none" stroke="#000000" d="M 639 604 L 680 604 L 680 820 L 520 820" stroke-miterlimit="10"/></g><g transform="translate(-278,-518) scale(1,1)"><path fill="#FFFFFF" stroke="none" d="M 540.3253497152483 811.580964487968 L 520 820 L 540.3253497152483 828.419035512032"/></g><g transform="translate(-278,-518) scale(1,1)"><path fill="none" stroke="#000000" d="M 540.3253497152483 811.580964487968 L 520 820 L 540.3253497152483 828.419035512032 L 540.3253497152483 811.580964487968" stroke-miterlimit="10"/></g><g transform="translate(-278,-518) scale(1,1)"><path fill="none" stroke="#000000" d="M 658 668 L 680 668 L 680 820 L 520 820" stroke-miterlimit="10"/></g><g transform="translate(-278,-518) scale(1,1)"><path fill="#FFFFFF" stroke="none" d="M 540.3253497152483 811.580964487968 L 520 820 L 540.3253497152483 828.419035512032"/></g><g transform="translate(-278,-518) scale(1,1)"><path fill="none" stroke="#000000" d="M 540.3253497152483 811.580964487968 L 520 820 L 540.3253497152483 828.419035512032 L 540.3253497152483 811.580964487968" stroke-miterlimit="10"/></g><g transform="translate(-278,-518) scale(1,1)"><path fill="none" stroke="#000000" d="M 424 540 L 543 540" stroke-miterlimit="10"/></g><g transform="translate(-278,-518) scale(1,1)"><path fill="#FFFFFF" stroke="none" d="M 522.6746502847517 548.419035512032 L 543 540 L 522.6746502847517 531.580964487968"/></g><g transform="translate(-278,-518) scale(1,1)"><path fill="none" stroke="#000000" d="M 522.6746502847517 548.419035512032 L 543 540 L 522.6746502847517 531.580964487968 L 522.6746502847517 548.419035512032" stroke-miterlimit="10"/></g><g transform="translate(-278,-518) scale(1,1)"><path fill="none" stroke="#000000" d="M 424 604 L 543 604" stroke-miterlimit="10"/></g><g transform="translate(-278,-518) scale(1,1)"><path fill="#FFFFFF" stroke="none" d="M 522.6746502847517 612.419035512032 L 543 604 L 522.6746502847517 595.580964487968"/></g><g transform="translate(-278,-518) scale(1,1)"><path fill="none" stroke="#000000" d="M 522.6746502847517 612.419035512032 L 543 604 L 522.6746502847517 595.580964487968 L 522.6746502847517 612.419035512032" stroke-miterlimit="10"/></g><g transform="translate(-278,-518) scale(1,1)"><path fill="none" stroke="#000000" d="M 424 668 L 543 668" stroke-miterlimit="10"/></g><g transform="translate(-278,-518) scale(1,1)"><path fill="#FFFFFF" stroke="none" d="M 522.6746502847517 676.419035512032 L 543 668 L 522.6746502847517 659.580964487968"/></g><g transform="translate(-278,-518) scale(1,1)"><path fill="none" stroke="#000000" d="M 522.6746502847517 676.419035512032 L 543 668 L 522.6746502847517 659.580964487968 L 522.6746502847517 676.419035512032" stroke-miterlimit="10"/></g><g transform="translate(-278,-518) scale(1,1)"><path fill="none" stroke="#000000" d="M 318 536 L 288 536 L 288 736 L 433 736" stroke-miterlimit="10"/></g><g transform="translate(-278,-518) scale(1,1)"><path fill="#FFFFFF" stroke="none" d="M 412.6746502847517 744.419035512032 L 433 736 L 412.6746502847517 727.580964487968"/></g><g transform="translate(-278,-518) scale(1,1)"><path fill="none" stroke="#000000" d="M 412.6746502847517 744.419035512032 L 433 736 L 412.6746502847517 727.580964487968 L 412.6746502847517 744.419035512032" stroke-miterlimit="10"/></g><g transform="translate(-278,-518) scale(1,1)"><path fill="none" stroke="#000000" d="M 332 604 L 288 604 L 288 736 L 433 736" stroke-miterlimit="10"/></g><g transform="translate(-278,-518) scale(1,1)"><path fill="#FFFFFF" stroke="none" d="M 412.6746502847517 744.419035512032 L 433 736 L 412.6746502847517 727.580964487968"/></g><g transform="translate(-278,-518) scale(1,1)"><path fill="none" stroke="#000000" d="M 412.6746502847517 744.419035512032 L 433 736 L 412.6746502847517 727.580964487968 L 412.6746502847517 744.419035512032" stroke-miterlimit="10"/></g><g transform="translate(-278,-518) scale(1,1)"><path fill="none" stroke="#000000" d="M 312 668 L 288 668 L 288 736 L 433 736" stroke-miterlimit="10"/></g><g transform="translate(-278,-518) scale(1,1)"><path fill="#FFFFFF" stroke="none" d="M 412.6746502847517 744.419035512032 L 433 736 L 412.6746502847517 727.580964487968"/></g><g transform="translate(-278,-518) scale(1,1)"><path fill="none" stroke="#000000" d="M 412.6746502847517 744.419035512032 L 433 736 L 412.6746502847517 727.580964487968 L 412.6746502847517 744.419035512032" stroke-miterlimit="10"/></g><g transform="translate(-278,-518) scale(1,1)"><path fill="none" stroke="#000000" d="M 475 916 L 475 974" stroke-miterlimit="10"/></g><g transform="translate(-278,-518) scale(1,1)"><g><path fill="none" stroke="none"/><text fill="#000000" stroke="none" font-family="Arial" font-size="13px" font-style="normal" font-weight="normal" text-decoration="none" x="484.5" y="950.7099609375">+hasValidTime</text></g></g><g transform="translate(-278,-518) scale(1,1)"><g><path fill="none" stroke="none"/><text fill="#000000" stroke="none" font-family="Arial" font-size="13px" font-style="normal" font-weight="normal" text-decoration="none" x="451.5" y="941.53857421875">0..1</text></g></g><g transform="translate(-278,-518) scale(1,1)"><g><path fill="none" stroke="none"/><text fill="#000000" stroke="none" font-family="Arial" font-size="13px" font-style="normal" font-weight="normal" text-decoration="none" x="459.220458984375" y="956.471923828125">*</text></g></g><g transform="translate(-278,-518) scale(1,1)"><path fill="none" stroke="#000000" d="M 474 752 L 474 810" stroke-miterlimit="10"/></g><g transform="translate(-278,-518) scale(1,1)"><path fill="#FFFFFF" stroke="none" d="M 465.580964487968 789.6746502847517 L 474 810 L 482.419035512032 789.6746502847517"/></g><g transform="translate(-278,-518) scale(1,1)"><path fill="none" stroke="#000000" d="M 465.580964487968 789.6746502847517 L 474 810 L 482.419035512032 789.6746502847517 L 465.580964487968 789.6746502847517" stroke-miterlimit="10"/></g></g></svg>