<svg version="1.1" xmlns="http://www.w3.org/2000/svg" xmlns:xlink="http://www.w3.org/1999/xlink" width="543.33544921875" height="484"><defs/><g><g transform="translate(-30,-302) scale(1,1)"><rect fill="#ffffff" stroke="none" x="336" y="312" width="85.33056640625" height="24"/></g><g transform="translate(-30,-302) scale(1,1)"><path fill="none" stroke="#000000" d="M 336 312 L 421.33056640625 312 L 421.33056640625 336 L 336 336 L 336 312 Z Z" stroke-miterlimit="10"/></g><g transform="translate(-30,-302) scale(1,1)"><g><path fill="none" stroke="none"/><text fill="#000000" stroke="none" font-family="Arial" font-size="13px" font-style="normal" font-weight="bold" text-decoration="none" x="340.5" y="329.7099609375">Time Instant</text></g></g><g transform="translate(-30,-302) scale(1,1)"><rect fill="#ffffff" stroke="none" x="40" y="528" width="154.3486328125" height="47"/></g><g transform="translate(-30,-302) scale(1,1)"><path fill="none" stroke="#000000" d="M 40 528 L 194.3486328125 528 L 194.3486328125 575 L 40 575 L 40 528 Z Z" stroke-miterlimit="10"/></g><g transform="translate(-30,-302) scale(1,1)"><path fill="none" stroke="#000000" d="M 40 553 L 194.3486328125 553" stroke-miterlimit="10"/></g><g transform="translate(-30,-302) scale(1,1)"><g><path fill="none" stroke="none"/><text fill="#000000" stroke="none" font-family="Arial" font-size="13px" font-style="normal" font-weight="bold" text-decoration="none" x="66.256591796875" y="545.7099609375">Absolute Instant</text></g></g><g transform="translate(-30,-302) scale(1,1)"><g><path fill="none" stroke="none"/><text fill="#000000" stroke="none" font-family="Arial" font-size="13px" font-style="normal" font-weight="normal" text-decoration="none" x="45" y="568.7099609375">+hasDateTime: dateTime</text></g></g><g transform="translate(-30,-302) scale(1,1)"><rect fill="#ffffff" stroke="none" x="315" y="536" width="105.08447265625" height="24"/></g><g transform="translate(-30,-302) scale(1,1)"><path fill="none" stroke="#000000" d="M 315 536 L 420.08447265625 536 L 420.08447265625 560 L 315 560 L 315 536 Z Z" stroke-miterlimit="10"/></g><g transform="translate(-30,-302) scale(1,1)"><g><path fill="none" stroke="none"/><text fill="#000000" stroke="none" font-family="Arial" font-size="13px" font-style="normal" font-weight="bold" text-decoration="none" x="319.5" y="553.7099609375">Relative Instant</text></g></g><g transform="translate(-30,-302) scale(1,1)"><rect fill="#ffffff" stroke="none" x="472" y="416" width="91.33544921875" height="24"/></g><g transform="translate(-30,-302) scale(1,1)"><path fill="none" stroke="#000000" d="M 472 416 L 563.33544921875 416 L 563.33544921875 440 L 472 440 L 472 416 Z Z" stroke-miterlimit="10"/></g><g transform="translate(-30,-302) scale(1,1)"><g><path fill="none" stroke="none"/><text fill="#000000" stroke="none" font-family="Arial" font-size="13px" font-style="normal" font-weight="bold" text-decoration="none" x="476.5" y="433.471923828125">Fuzzy Instant</text></g></g><g transform="translate(-30,-302) scale(1,1)"><rect fill="#ffffff" stroke="none" x="270" y="632" width="194.33251953125" height="47"/></g><g transform="translate(-30,-302) scale(1,1)"><path fill="none" stroke="#000000" d="M 270 632 L 464.33251953125 632 L 464.33251953125 679 L 270 679 L 270 632 Z Z" stroke-miterlimit="10"/></g><g transform="translate(-30,-302) scale(1,1)"><path fill="none" stroke="#000000" d="M 270 657 L 464.33251953125 657" stroke-miterlimit="10"/></g><g transform="translate(-30,-302) scale(1,1)"><g><path fill="none" stroke="none"/><text fill="#000000" stroke="none" font-family="Arial" font-size="13px" font-style="normal" font-weight="bold" text-decoration="none" x="334.412353515625" y="649.7099609375">Time Delta</text></g></g><g transform="translate(-30,-302) scale(1,1)"><g><path fill="none" stroke="none"/><text fill="#000000" stroke="none" font-family="Arial" font-size="13px" font-style="normal" font-weight="normal" text-decoration="none" x="275" y="672.7099609375">+deltaNumericDuration: decimal</text></g></g><g transform="translate(-30,-302) scale(1,1)"><rect fill="#ffffff" stroke="none" x="320" y="752" width="95.4296875" height="24"/></g><g transform="translate(-30,-302) scale(1,1)"><path fill="none" stroke="#000000" d="M 320 752 L 415.4296875 752 L 415.4296875 776 L 320 776 L 320 752 Z Z" stroke-miterlimit="10"/></g><g transform="translate(-30,-302) scale(1,1)"><g><path fill="none" stroke="none"/><text fill="#000000" stroke="none" font-family="Arial" font-size="13px" font-style="normal" font-weight="bold" text-decoration="none" x="324.5" y="769.7099609375">Temporal Unit</text></g></g><g transform="translate(-30,-302) scale(1,1)"><rect fill="#ffffff" stroke="none" x="120" y="416" width="180.919921875" height="24"/></g><g transform="translate(-30,-302) scale(1,1)"><path fill="none" stroke="#000000" d="M 120 416 L 300.919921875 416 L 300.919921875 440 L 120 440 L 120 416 Z Z" stroke-miterlimit="10"/></g><g transform="translate(-30,-302) scale(1,1)"><g><path fill="none" stroke="none"/><text fill="#000000" stroke="none" font-family="Arial" font-size="13px" font-style="normal" font-weight="bold" text-decoration="none" x="124.5" y="433.7099609375">Absolute or Relative Instant</text></g></g><g transform="translate(-30,-302) scale(1,1)"><path fill="none" stroke="#000000" d="M 137 528 L 137 496 L 210 496 L 210 440" stroke-miterlimit="10"/></g><g transform="translate(-30,-302) scale(1,1)"><path fill="#FFFFFF" stroke="none" d="M 218.41903551203197 460.3253497152483 L 210 440 L 201.58096448796803 460.3253497152483"/></g><g transform="translate(-30,-302) scale(1,1)"><path fill="none" stroke="#000000" d="M 218.41903551203197 460.3253497152483 L 210 440 L 201.58096448796803 460.3253497152483 L 218.41903551203197 460.3253497152483" stroke-miterlimit="10"/></g><g transform="translate(-30,-302) scale(1,1)"><path fill="none" stroke="#000000" d="M 372 536 L 372 496 L 210 496 L 210 440" stroke-miterlimit="10"/></g><g transform="translate(-30,-302) scale(1,1)"><path fill="#FFFFFF" stroke="none" d="M 218.41903551203197 460.3253497152483 L 210 440 L 201.58096448796803 460.3253497152483"/></g><g transform="translate(-30,-302) scale(1,1)"><path fill="none" stroke="#000000" d="M 218.41903551203197 460.3253497152483 L 210 440 L 201.58096448796803 460.3253497152483 L 218.41903551203197 460.3253497152483" stroke-miterlimit="10"/></g><g transform="translate(-30,-302) scale(1,1)"><path fill="none" stroke="#000000" d="M 258 416 L 258 376 L 379 376 L 379 336" stroke-miterlimit="10"/></g><g transform="translate(-30,-302) scale(1,1)"><path fill="#FFFFFF" stroke="none" d="M 387.419035512032 356.3253497152483 L 379 336 L 370.580964487968 356.3253497152483"/></g><g transform="translate(-30,-302) scale(1,1)"><path fill="none" stroke="#000000" d="M 387.419035512032 356.3253497152483 L 379 336 L 370.580964487968 356.3253497152483 L 387.419035512032 356.3253497152483" stroke-miterlimit="10"/></g><g transform="translate(-30,-302) scale(1,1)"><path fill="none" stroke="#000000" d="M 517 416 L 517 376 L 379 376 L 379 336" stroke-miterlimit="10"/></g><g transform="translate(-30,-302) scale(1,1)"><path fill="#FFFFFF" stroke="none" d="M 387.419035512032 356.3253497152483 L 379 336 L 370.580964487968 356.3253497152483"/></g><g transform="translate(-30,-302) scale(1,1)"><path fill="none" stroke="#000000" d="M 387.419035512032 356.3253497152483 L 379 336 L 370.580964487968 356.3253497152483 L 387.419035512032 356.3253497152483" stroke-miterlimit="10"/></g><g transform="translate(-30,-302) scale(1,1)"><path fill="none" stroke="#000000" d="M 315 548 L 194 548" stroke-miterlimit="10"/></g><g transform="translate(-30,-302) scale(1,1)"><path fill="none" stroke="#000000" d="M 204.16267485762415 543.790482243984 L 194 548 L 204.16267485762415 552.209517756016" stroke-miterlimit="10"/></g><g transform="translate(-30,-302) scale(1,1)"><g><path fill="none" stroke="none"/><text fill="#000000" stroke="none" font-family="Arial" font-size="13px" font-style="normal" font-weight="normal" text-decoration="none" x="201.5" y="567.7099609375">+hasPrefixAnchor</text></g></g><g transform="translate(-30,-302) scale(1,1)"><g><path fill="none" stroke="none"/><text fill="#000000" stroke="none" font-family="Arial" font-size="13px" font-style="normal" font-weight="normal" text-decoration="none" x="290.220458984375" y="539.471923828125">*</text></g></g><g transform="translate(-30,-302) scale(1,1)"><g><path fill="none" stroke="none"/><text fill="#000000" stroke="none" font-family="Arial" font-size="13px" font-style="normal" font-weight="normal" text-decoration="none" x="211.5" y="539.471923828125">1</text></g></g><g transform="translate(-30,-302) scale(1,1)"><path fill="none" stroke="#000000" d="M 516 440 L 516 472 L 280 472 L 280 440" stroke-miterlimit="10"/></g><g transform="translate(-30,-302) scale(1,1)"><path fill="none" stroke="#000000" d="M 284.209517756016 450.16267485762415 L 280 440 L 275.790482243984 450.16267485762415" stroke-miterlimit="10"/></g><g transform="translate(-30,-302) scale(1,1)"><g><path fill="none" stroke="none"/><text fill="#000000" stroke="none" font-family="Arial" font-size="13px" font-style="normal" font-weight="normal" text-decoration="none" x="343.5" y="457.7099609375">+hasLeftAnchor</text></g></g><g transform="translate(-30,-302) scale(1,1)"><g><path fill="none" stroke="none"/><text fill="#000000" stroke="none" font-family="Arial" font-size="13px" font-style="normal" font-weight="normal" text-decoration="none" x="503.220458984375" y="458.471923828125">*</text></g></g><g transform="translate(-30,-302) scale(1,1)"><g><path fill="none" stroke="none"/><text fill="#000000" stroke="none" font-family="Arial" font-size="13px" font-style="normal" font-weight="normal" text-decoration="none" x="287.5" y="457.471923828125">1</text></g></g><g transform="translate(-30,-302) scale(1,1)"><path fill="none" stroke="#000000" d="M 367 561 L 367 631" stroke-miterlimit="10"/></g><g transform="translate(-30,-302) scale(1,1)"><path fill="none" stroke="#000000" d="M 362.790482243984 620.8373251423759 L 367 631 L 371.209517756016 620.8373251423759" stroke-miterlimit="10"/></g><g transform="translate(-30,-302) scale(1,1)"><g><path fill="none" stroke="none"/><text fill="#000000" stroke="none" font-family="Arial" font-size="13px" font-style="normal" font-weight="normal" text-decoration="none" x="375.5" y="599.7099609375">+hasTimeDelta</text></g></g><g transform="translate(-30,-302) scale(1,1)"><g><path fill="none" stroke="none"/><text fill="#000000" stroke="none" font-family="Arial" font-size="13px" font-style="normal" font-weight="normal" text-decoration="none" x="351.58544921875" y="586.471923828125">*</text></g></g><g transform="translate(-30,-302) scale(1,1)"><g><path fill="none" stroke="none"/><text fill="#000000" stroke="none" font-family="Arial" font-size="13px" font-style="normal" font-weight="normal" text-decoration="none" x="350.5" y="613.471923828125">1</text></g></g><g transform="translate(-30,-302) scale(1,1)"><path fill="none" stroke="#000000" d="M 471 428 L 302 428" stroke-miterlimit="10"/></g><g transform="translate(-30,-302) scale(1,1)"><path fill="none" stroke="#000000" d="M 312.16267485762415 423.790482243984 L 302 428 L 312.16267485762415 432.209517756016" stroke-miterlimit="10"/></g><g transform="translate(-30,-302) scale(1,1)"><g><path fill="none" stroke="none"/><text fill="#000000" stroke="none" font-family="Arial" font-size="13px" font-style="normal" font-weight="normal" text-decoration="none" x="342.5" y="417.7099609375">+hasRightAnchor</text></g></g><g transform="translate(-30,-302) scale(1,1)"><g><path fill="none" stroke="none"/><text fill="#000000" stroke="none" font-family="Arial" font-size="13px" font-style="normal" font-weight="normal" text-decoration="none" x="456.58544921875" y="418.471923828125">*</text></g></g><g transform="translate(-30,-302) scale(1,1)"><g><path fill="none" stroke="none"/><text fill="#000000" stroke="none" font-family="Arial" font-size="13px" font-style="normal" font-weight="normal" text-decoration="none" x="310.726806640625" y="419.471923828125">1</text></g></g><g transform="translate(-30,-302) scale(1,1)"><path fill="none" stroke="#000000" d="M 367 680 L 367 751" stroke-miterlimit="10"/></g><g transform="translate(-30,-302) scale(1,1)"><path fill="none" stroke="#000000" d="M 362.790482243984 740.8373251423759 L 367 751 L 371.209517756016 740.8373251423759" stroke-miterlimit="10"/></g><g transform="translate(-30,-302) scale(1,1)"><g><path fill="none" stroke="none"/><text fill="#000000" stroke="none" font-family="Arial" font-size="13px" font-style="normal" font-weight="normal" text-decoration="none" x="374.5" y="718.7099609375">+hasDeltaUnitType</text></g></g><g transform="translate(-30,-302) scale(1,1)"><g><path fill="none" stroke="none"/><text fill="#000000" stroke="none" font-family="Arial" font-size="13px" font-style="normal" font-weight="normal" text-decoration="none" x="351.220458984375" y="705.471923828125">*</text></g></g><g transform="translate(-30,-302) scale(1,1)"><g><path fill="none" stroke="none"/><text fill="#000000" stroke="none" font-family="Arial" font-size="13px" font-style="normal" font-weight="normal" text-decoration="none" x="350.5" y="733.471923828125">1</text></g></g></g></svg>